<svg width="22" height="22" viewBox="0 0 22 22" fill="none" xmlns="http://www.w3.org/2000/svg">
<path d="M10.9937 0.000916247H11.0769C13.0816 0.000916247 14.9576 0.562575 16.5644 1.54021L16.5152 1.51181C18.1882 2.51418 19.5428 3.90229 20.4933 5.56345L20.5211 5.61659C21.451 7.23743 22 9.18629 22 11.2662C22 16.2194 18.8856 20.4286 14.5543 21.9478L14.4765 21.9716C14.4202 21.9899 14.3558 22 14.2896 22C14.1448 22 14.0106 21.9505 13.9025 21.8681L13.9042 21.869C13.7898 21.7636 13.7183 21.6115 13.7183 21.442C13.7183 21.4374 13.7183 21.4328 13.7183 21.4292V21.4301C13.7183 21.4008 13.7206 21.0263 13.7254 20.3068C13.7302 19.5872 13.7326 18.9294 13.7326 18.3332C13.7388 18.2645 13.7424 18.1857 13.7424 18.105C13.7424 17.3794 13.4536 16.7233 12.9877 16.2496C13.5403 16.1937 14.0393 16.1003 14.5239 15.9702L14.4559 15.9858C14.9683 15.8392 15.4154 15.644 15.8303 15.3975L15.8026 15.4131C16.2568 15.1566 16.6413 14.8304 16.9578 14.4437L16.9632 14.4373C17.2958 14.0012 17.556 13.4881 17.7143 12.9301L17.7223 12.898C17.9092 12.2722 18.0165 11.553 18.0165 10.808C18.0165 10.7668 18.0165 10.7247 18.0156 10.6834V10.6899C18.0156 10.6697 18.0165 10.6468 18.0165 10.6239C18.0165 9.4804 17.5855 8.44047 16.8818 7.6644L16.8845 7.66715C17.0347 7.264 17.1214 6.79855 17.1214 6.31202C17.1214 5.71738 16.9918 5.1548 16.7602 4.64995L16.77 4.67377C16.6672 4.65362 16.5501 4.64171 16.4294 4.64171C16.1307 4.64171 15.849 4.71317 15.5987 4.83962L15.6094 4.83503C15.1015 5.02745 14.667 5.24551 14.2574 5.50023L14.2914 5.48007L13.7469 5.83191C12.9225 5.59002 11.9755 5.45075 10.9973 5.45075C10.0191 5.45075 9.07218 5.59002 8.17444 5.85024L8.24687 5.83191C8.09427 5.7244 7.89129 5.59216 7.63795 5.43518C7.30442 5.2391 6.9101 5.04944 6.50057 4.89001L6.44155 4.86985C6.17956 4.72875 5.86929 4.64629 5.53934 4.64629C5.42847 4.64629 5.31938 4.65545 5.21387 4.67377L5.22549 4.67194C5.00374 5.15206 4.87409 5.71555 4.87409 6.31019C4.87409 6.79672 4.96082 7.26309 5.11998 7.69281L5.11104 7.66624C4.40912 8.43955 3.97903 9.47949 3.97903 10.623C3.97903 10.6459 3.97903 10.6697 3.97992 10.6926V10.6889C3.97903 10.7247 3.97903 10.7659 3.97903 10.808C3.97903 11.5493 4.08633 12.2658 4.28662 12.9402L4.27321 12.8879C4.4422 13.4771 4.69883 13.9893 5.03325 14.4391L5.0252 14.4272C5.34173 14.8258 5.72444 15.1538 6.1581 15.4003L6.17778 15.4104C6.56405 15.6412 7.01203 15.8364 7.48326 15.9729L7.52439 15.983C7.94107 16.0975 8.44001 16.191 8.95058 16.2432L8.99171 16.2469C8.60632 16.639 8.3497 17.1631 8.29068 17.7477L8.28979 17.7587C8.1047 17.8512 7.88921 17.9264 7.66477 17.9749L7.64599 17.9786C7.41709 18.0253 7.1551 18.0519 6.88595 18.0519C6.86628 18.0519 6.84661 18.0519 6.82694 18.0519H6.82962C6.47732 18.0446 6.15363 17.9273 5.88628 17.733L5.89164 17.7367C5.55991 17.4994 5.29166 17.1915 5.10389 16.8333L5.09763 16.8195C4.92058 16.5117 4.68721 16.257 4.41091 16.0618L4.40286 16.0563C4.20167 15.9015 3.96472 15.7805 3.70899 15.7081L3.69468 15.7045L3.40855 15.6605C3.38799 15.6587 3.36384 15.6577 3.3397 15.6577C3.21452 15.6577 3.09559 15.6834 2.9874 15.7283L2.99366 15.7255C2.91736 15.7695 2.89351 15.8257 2.92213 15.8941C2.957 15.9729 2.99992 16.0407 3.05178 16.1003L3.05089 16.0994C3.10543 16.1653 3.16713 16.2231 3.23419 16.2735L3.23687 16.2753L3.33702 16.3486C3.59007 16.4842 3.79841 16.6729 3.95667 16.9011L3.96025 16.9066C4.13104 17.1237 4.28125 17.3693 4.40197 17.6323L4.41091 17.6542L4.55397 17.9914C4.67469 18.3598 4.89376 18.6676 5.17989 18.8903L5.18436 18.8939C5.45261 19.1083 5.7763 19.2623 6.12949 19.3319L6.1438 19.3337C6.43887 19.3924 6.78223 19.429 7.13274 19.4363H7.139C7.17924 19.4382 7.22574 19.4382 7.27313 19.4382C7.5065 19.4382 7.73541 19.4189 7.95895 19.3814L7.93481 19.385L8.26386 19.3264C8.26386 19.6984 8.26624 20.1315 8.27101 20.6256C8.27578 21.1198 8.27817 21.3864 8.27817 21.4255V21.4383C8.27817 21.6078 8.20663 21.7599 8.09218 21.8653C7.98577 21.9469 7.85165 21.9963 7.7059 21.9963C7.63884 21.9963 7.57446 21.9863 7.51455 21.967L7.51902 21.9679C3.11169 20.4204 0 16.2112 0 11.257C0 9.17896 0.547228 7.23194 1.50309 5.55887L1.47448 5.61201C2.45269 3.89771 3.80735 2.5096 5.42847 1.53563L5.48033 1.50723C7.03528 0.559827 8.90945 0 10.9106 0H10.9982H10.9937V0.000916247ZM4.16233 16.1873C4.19094 16.1189 4.15756 16.0603 4.06218 16.0114C3.96681 15.9821 3.90481 15.9919 3.8762 16.0407C3.84759 16.1091 3.88097 16.1678 3.97635 16.2167C4.06219 16.2753 4.12418 16.2655 4.16233 16.1873ZM4.60673 16.6867C4.67349 16.6378 4.66396 16.5596 4.57812 16.4521C4.48274 16.3642 4.40644 16.3495 4.34921 16.4081C4.28245 16.457 4.29198 16.5352 4.37782 16.6427C4.47261 16.7386 4.54891 16.753 4.60673 16.6858V16.6867ZM5.03593 17.3464C5.12177 17.278 5.12177 17.1851 5.03593 17.0678C4.95963 16.9408 4.87856 16.9115 4.79272 16.9799C4.70688 17.0288 4.70688 17.1167 4.79272 17.2438C4.87856 17.3708 4.95963 17.405 5.03593 17.3464ZM5.63681 17.963C5.71311 17.8848 5.69403 17.792 5.57958 17.6845C5.46513 17.5672 5.36975 17.5525 5.29345 17.6405C5.20761 17.7187 5.22668 17.8115 5.35067 17.919C5.46513 18.0363 5.5605 18.0498 5.63681 17.9594V17.963ZM6.45318 18.3295C6.48179 18.222 6.4198 18.1438 6.26719 18.095C6.12413 18.0559 6.03352 18.0901 5.99537 18.1976C5.95722 18.3051 6.01921 18.3784 6.18135 18.4175C6.32442 18.4767 6.41503 18.4474 6.45318 18.3295ZM7.35539 18.4028C7.35539 18.2758 7.27432 18.222 7.11218 18.2416C6.95957 18.2416 6.88327 18.2953 6.88327 18.4028C6.88327 18.5299 6.96434 18.5836 7.12648 18.5641C7.27909 18.5647 7.35539 18.5103 7.35539 18.4028ZM8.18607 18.2562C8.16699 18.1487 8.08115 18.1047 7.92855 18.1243C7.77594 18.1536 7.70918 18.2269 7.72826 18.3442C7.74733 18.4615 7.83317 18.5005 7.98578 18.4615C8.13838 18.4224 8.20455 18.3539 8.18607 18.2562Z" fill="black"/>
</svg>
