<svg width="60" height="60" viewBox="0 0 60 60" fill="none" xmlns="http://www.w3.org/2000/svg">
<path d="M13.8182 21.9512L13.8182 38.0488C13.8182 41.8878 16.9115 45 20.7273 45H34.5454C38.3612 45 41.4545 41.8878 41.4545 38.0488V21.9512C41.4545 18.1122 38.3612 15 34.5454 15H20.7273C16.9115 15 13.8182 18.1122 13.8182 21.9512Z" fill="#100E17"/>
<path d="M46.1818 21.9512V38.0488C46.1818 41.8878 43.0885 45 39.2727 45H25.4546C21.6388 45 18.5455 41.8878 18.5455 38.0488V21.9512C18.5455 18.1122 21.6388 15 25.4546 15H39.2727C43.0885 15 46.1818 18.1122 46.1818 21.9512Z" fill="#100E17"/>
<path d="M1.6443 32.0611C0.683672 30.857 0.683672 29.143 1.6443 27.9389L14.9023 11.3206C16.8371 8.8954 20.7273 10.2718 20.7273 13.3817V46.6182C20.7273 49.7283 16.8371 51.1046 14.9023 48.6794L1.6443 32.0611Z" fill="#100E17"/>
<path d="M58.3556 32.0611C59.3163 30.857 59.3163 29.143 58.3556 27.9389L45.0978 11.3206C43.1629 8.8954 39.2727 10.2718 39.2727 13.3817V46.6182C39.2727 49.7283 43.1629 51.1046 45.0978 48.6794L58.3556 32.0611Z" fill="#100E17"/>
<path d="M21.8538 27.2405C21.5273 27.2405 21.2374 27.3052 20.9842 27.4344C20.7346 27.5599 20.5237 27.7426 20.3512 27.9826C20.1824 28.2189 20.0539 28.5087 19.9659 28.8521C19.8778 29.1917 19.8338 29.5738 19.8338 29.9984C19.8338 30.4303 19.8723 30.8143 19.9494 31.1502C20.0301 31.4862 20.1512 31.7705 20.3127 32.0031C20.4778 32.232 20.687 32.4073 20.9401 32.5292C21.197 32.6473 21.5016 32.7064 21.8538 32.7064C22.1805 32.7064 22.507 32.6694 22.8336 32.5956C23.1639 32.5218 23.5217 32.4166 23.9069 32.28V33.7198C23.7308 33.7936 23.5565 33.8564 23.3841 33.9081C23.2116 33.9598 23.0354 34.0022 22.8556 34.0355C22.6758 34.0687 22.4905 34.0927 22.2997 34.1075C22.1126 34.1259 21.9107 34.1351 21.6942 34.1351C21.0741 34.1351 20.5365 34.0355 20.0815 33.8361C19.6265 33.6367 19.2503 33.3562 18.9531 32.9944C18.6559 32.6325 18.4357 32.1969 18.2926 31.6874C18.1495 31.1779 18.0779 30.6112 18.0779 29.9873C18.0779 29.3745 18.1605 28.8133 18.3256 28.3038C18.4907 27.7906 18.7329 27.3495 19.0522 26.9803C19.3714 26.6111 19.7659 26.325 20.2356 26.1219C20.7053 25.9152 21.2447 25.8118 21.8538 25.8118C22.2538 25.8118 22.6538 25.8635 23.0538 25.9669C23.4574 26.0665 23.8427 26.205 24.2097 26.3822L23.6593 27.7777C23.3583 27.6337 23.0556 27.5082 22.751 27.4012C22.4465 27.2941 22.1474 27.2405 21.8538 27.2405ZM30.0332 31.776C30.0332 32.1378 29.9708 32.4646 29.8461 32.7562C29.725 33.0442 29.5451 33.2915 29.3066 33.4983C29.0718 33.7013 28.7819 33.8582 28.437 33.969C28.0957 34.0798 27.703 34.1351 27.259 34.1351C26.8701 34.1351 26.4939 34.0945 26.1307 34.0133C25.771 33.9321 25.4371 33.8103 25.1289 33.6478V32.0529C25.305 32.1378 25.483 32.2209 25.6628 32.3021C25.8426 32.3797 26.0242 32.4498 26.2077 32.5126C26.3949 32.5753 26.5802 32.6252 26.7637 32.6621C26.9508 32.699 27.1361 32.7174 27.3196 32.7174C27.5067 32.7174 27.6663 32.6971 27.7985 32.6565C27.9342 32.6122 28.0425 32.5532 28.1232 32.4793C28.2076 32.4018 28.2682 32.3113 28.3049 32.208C28.3452 32.1009 28.3654 31.9846 28.3654 31.8591C28.3654 31.7077 28.3324 31.5748 28.2663 31.4604C28.2039 31.3422 28.114 31.2333 27.9966 31.1336C27.8829 31.0303 27.7434 30.9306 27.5783 30.8346C27.4168 30.7386 27.2352 30.6371 27.0334 30.53C26.8646 30.4414 26.6756 30.3343 26.4664 30.2088C26.2573 30.0833 26.0591 29.9283 25.8719 29.7436C25.6885 29.5554 25.5344 29.3302 25.4096 29.068C25.2849 28.8022 25.2225 28.4847 25.2225 28.1155C25.2225 27.7537 25.2812 27.4307 25.3986 27.1464C25.5197 26.8584 25.6903 26.6166 25.9105 26.421C26.1307 26.2216 26.3967 26.0702 26.7086 25.9669C27.0242 25.8635 27.3765 25.8118 27.7654 25.8118C27.9599 25.8118 28.1489 25.8247 28.3324 25.8506C28.5195 25.8764 28.703 25.9133 28.8828 25.9613C29.0663 26.0093 29.2497 26.0684 29.4332 26.1385C29.6167 26.2087 29.8057 26.2899 30.0002 26.3822L29.4497 27.7168C29.2846 27.6393 29.1305 27.571 28.9874 27.5119C28.8443 27.4528 28.7048 27.403 28.569 27.3624C28.4333 27.3218 28.2993 27.2922 28.1673 27.2738C28.0388 27.2516 27.9085 27.2405 27.7765 27.2405C27.4902 27.2405 27.2701 27.3181 27.1159 27.4732C26.9655 27.6245 26.8902 27.8276 26.8902 28.0823C26.8902 28.2189 26.9123 28.3407 26.9563 28.4478C27.004 28.5512 27.0774 28.649 27.1765 28.7413C27.2792 28.8336 27.4095 28.9277 27.5673 29.0237C27.7287 29.1197 27.9232 29.2286 28.1507 29.3505C28.4259 29.4982 28.6791 29.6495 28.9103 29.8046C29.1415 29.9559 29.3397 30.1258 29.5048 30.314C29.6736 30.4987 29.8038 30.7091 29.8956 30.9454C29.9873 31.1816 30.0332 31.4585 30.0332 31.776ZM33.8146 28.8521C34.1595 28.8521 34.4806 28.9056 34.7779 29.0127C35.0751 29.1197 35.3338 29.2766 35.5539 29.4834C35.7741 29.6901 35.9466 29.9486 36.0714 30.2587C36.1961 30.5651 36.2585 30.9177 36.2585 31.3164C36.2585 31.7557 36.1906 32.1507 36.0549 32.5015C35.9191 32.8485 35.7191 33.1439 35.4549 33.3875C35.1907 33.6275 34.8623 33.8121 34.4696 33.9413C34.0806 34.0705 33.633 34.1351 33.1266 34.1351C32.9247 34.1351 32.7248 34.1259 32.5266 34.1075C32.3285 34.089 32.1377 34.0613 31.9542 34.0244C31.7744 33.9912 31.6019 33.9469 31.4368 33.8915C31.2753 33.8361 31.1285 33.7715 30.9964 33.6976V32.219C31.1249 32.2929 31.2735 32.363 31.4423 32.4295C31.6111 32.4923 31.7854 32.5476 31.9652 32.5956C32.1487 32.6399 32.3321 32.6768 32.5156 32.7064C32.6991 32.7322 32.8734 32.7451 33.0385 32.7451C33.5302 32.7451 33.9045 32.6436 34.1614 32.4406C34.4182 32.2338 34.5467 31.9071 34.5467 31.4604C34.5467 31.0617 34.4201 30.7589 34.1669 30.5522C33.9174 30.3417 33.5302 30.2365 33.0055 30.2365C32.9101 30.2365 32.8073 30.242 32.6973 30.2531C32.5908 30.2642 32.4844 30.279 32.378 30.2974C32.2753 30.3159 32.1762 30.3362 32.0808 30.3583C31.9854 30.3768 31.9028 30.3971 31.8331 30.4193L31.1561 30.0538L31.4588 25.9281H35.7081V27.379H32.9339L32.8018 28.9684C32.9193 28.9425 33.055 28.9167 33.2091 28.8908C33.3669 28.865 33.5687 28.8521 33.8146 28.8521ZM42.5938 29.9762C42.5938 30.6297 42.5425 31.213 42.4396 31.7262C42.3407 32.2393 42.1793 32.675 41.9553 33.0331C41.7353 33.3912 41.4491 33.6644 41.0967 33.8527C40.748 34.041 40.3262 34.1351 39.8309 34.1351C39.3647 34.1351 38.9593 34.041 38.6142 33.8527C38.2694 33.6644 37.9833 33.3912 37.7556 33.0331C37.528 32.675 37.3574 32.2393 37.2436 31.7262C37.1338 31.213 37.0785 30.6297 37.0785 29.9762C37.0785 29.3228 37.1283 28.7376 37.2273 28.2207C37.3302 27.7039 37.4916 27.2664 37.7116 26.9083C37.9316 26.5502 38.2163 26.277 38.5647 26.0887C38.9134 25.8967 39.3353 25.8007 39.8309 25.8007C40.2931 25.8007 40.6967 25.8949 41.0418 26.0831C41.3865 26.2714 41.6745 26.5446 41.9058 26.9028C42.1371 27.2608 42.3094 27.6983 42.4233 28.2152C42.5371 28.7321 42.5938 29.3191 42.5938 29.9762ZM38.7738 29.9762C38.7738 30.8992 38.8527 31.5933 39.0105 32.0585C39.1683 32.5236 39.4418 32.7562 39.8309 32.7562C40.2123 32.7562 40.4858 32.5255 40.6509 32.064C40.8196 31.6025 40.904 30.9066 40.904 29.9762C40.904 29.0496 40.8196 28.3537 40.6509 27.8885C40.4858 27.4196 40.2123 27.1852 39.8309 27.1852C39.6363 27.1852 39.4713 27.2442 39.3353 27.3624C39.2033 27.4805 39.0949 27.6559 39.0105 27.8885C38.9262 28.1211 38.8658 28.4127 38.8291 28.7634C38.7923 29.1105 38.7738 29.5148 38.7738 29.9762Z" fill="#0FB6D6"/>
</svg>
